<?xml version="1.0" ?><svg viewBox="0 0 32 32" xmlns="http://www.w3.org/2000/svg"><defs><style>.cls-1{fill:none;stroke:#000;stroke-linejoin:round;stroke-width:2px;}</style></defs><title/><g data-name="484-Server" id="_484-Server"><rect class="cls-1" height="10" width="30" x="1" y="1"/><polyline class="cls-1" points="1 21 1 11 31 11 31 21"/><polyline class="cls-1" points="16 31 1 31 1 21 18 21"/><line class="cls-1" x1="10" x2="4" y1="6" y2="6"/><line class="cls-1" x1="5" x2="23" y1="16" y2="16"/><line class="cls-1" x1="25" x2="27" y1="16" y2="16"/><line class="cls-1" x1="5" x2="7" y1="26" y2="26"/><line class="cls-1" x1="9" x2="11" y1="26" y2="26"/><line class="cls-1" x1="13" x2="15" y1="26" y2="26"/><line class="cls-1" x1="12" x2="14" y1="6" y2="6"/><line class="cls-1" x1="16" x2="18" y1="6" y2="6"/><line class="cls-1" x1="20" x2="22" y1="6" y2="6"/><line class="cls-1" x1="24" x2="26" y1="6" y2="6"/><polyline class="cls-1" points="20 27 23 30 30 23"/></g></svg>